<?xml version="1.0" encoding="UTF-8" standalone="no"?>
<!-- Creator: CorelDRAW -->

<svg
   xmlns:dc="http://purl.org/dc/elements/1.1/"
   xmlns:cc="http://creativecommons.org/ns#"
   xmlns:rdf="http://www.w3.org/1999/02/22-rdf-syntax-ns#"
   xmlns:svg="http://www.w3.org/2000/svg"
   xmlns="http://www.w3.org/2000/svg"
   xmlns:sodipodi="http://sodipodi.sourceforge.net/DTD/sodipodi-0.dtd"
   xmlns:inkscape="http://www.inkscape.org/namespaces/inkscape"
   xml:space="preserve"
   width="106.392mm"
   height="119.375mm"
   style="shape-rendering:geometricPrecision; text-rendering:geometricPrecision; image-rendering:optimizeQuality; fill-rule:evenodd; clip-rule:evenodd"
   viewBox="0 0 123.822 138.932"
   version="1.1"
   id="svg3837"
   sodipodi:docname="unicamp.svg"
   inkscape:version="0.92.4 5da689c313, 2019-01-14"><metadata
   id="metadata3841"><rdf:RDF><cc:Work
       rdf:about=""><dc:format>image/svg+xml</dc:format><dc:type
         rdf:resource="http://purl.org/dc/dcmitype/StillImage" /></cc:Work></rdf:RDF></metadata><sodipodi:namedview
   pagecolor="#ffffff"
   bordercolor="#666666"
   borderopacity="1"
   objecttolerance="10"
   gridtolerance="10"
   guidetolerance="10"
   inkscape:pageopacity="0"
   inkscape:pageshadow="2"
   inkscape:window-width="1366"
   inkscape:window-height="743"
   id="namedview3839"
   showgrid="false"
   inkscape:zoom="0.60064572"
   inkscape:cx="-255.63789"
   inkscape:cy="400.25713"
   inkscape:window-x="0"
   inkscape:window-y="25"
   inkscape:window-maximized="0"
   inkscape:current-layer="svg3837" />
 <defs
   id="defs3807">
  <style
   type="text/css"
   id="style3805">
   <![CDATA[
    .fil0 {fill:#1F1A17}
    .fil1 {fill:#DA251D}
   ]]>
  </style>
 
  
  
 
   
   
   
   
   
   
   
   
   
   
   
   
   
   
   
   
   
   
   
   
   
  </defs>
 <g
   id="g3909"
   transform="translate(0,18.475772)"><path
     style="fill:#1f1a17"
     inkscape:connector-curvature="0"
     d="M 56.7685,45.7277 V 1.2062 c 5.15158,0.118944 10.2834,0.852041 15.2764,2.21919 -0.515228,3.05133 0.792452,6.10255 3.32867,7.86598 l -14.7414,35.2487 C 59.36406,46.124 58.07616,45.866445 56.76848,45.727716 Z"
     class="fil0"
     id="_124851560" /><path
     style="fill:#1f1a17"
     inkscape:connector-curvature="0"
     d="M 52.8816,45.7277 V 1.2656 C 45.86754,1.622198 39.012,3.34606 32.6518,6.33792 l 16.4851,40.1624 c 1.20864,-0.396168 2.45685,-0.65384 3.74474,-0.772667 z"
     class="fil0"
     id="_124851488" /><path
     style="fill:#1f1a17"
     inkscape:connector-curvature="0"
     d="M 46.1582,47.6186 29.7525,7.6741 c -6.30086,3.22975 -11.9873,7.58876 -16.7426,12.8394 l 29.5224,29.5224 c 1.1096,-0.931181 2.31823,-1.74354 3.62592,-2.41728 z"
     class="fil0"
     id="_124851416" /><path
     style="fill:#1f1a17"
     inkscape:connector-curvature="0"
     d="M 10.9657,22.9313 C 6.62647,28.08288 3.33749,34.0468 1.29659,40.4467 l 36.6951,15.3557 c 0.633939,-1.24833 1.42651,-2.43718 2.33802,-3.50709 l -29.364,-29.364 z"
     class="fil0"
     id="_124851344" /><path
     style="fill:#1f1a17"
     inkscape:connector-curvature="0"
     d="M 36.7035,58.7543 0.5237,43.6166 c -0.832255,6.45926 -0.673742,12.9978 0.475425,19.3976 h 34.8524 c 0.118827,-1.44629 0.41607,-2.87292 0.851924,-4.25985 z"
     class="fil0"
     id="_124851272" /><path
     style="fill:#1f1a17"
     inkscape:connector-curvature="0"
     d="M 35.8631,66.2129 H 1.9024 C 3.96296,71.56268 6.63791,76.635 9.84776,81.3704 L 36.67546,70.354 c -0.41607,-1.34737 -0.69341,-2.7343 -0.812354,-4.14114 z"
     class="fil0"
     id="_124851200" /><path
     style="fill:#1f1a17"
     inkscape:connector-curvature="0"
     d="m 40.3804,76.7181 c -0.951083,-1.10948 -1.76344,-2.31812 -2.41728,-3.62592 l -25.8965,10.6202 c 3.60601,3.58634 7.58864,6.73672 11.8684,9.45124 l 16.4454,-16.4455 z"
     class="fil0"
     id="_124851128" /><path
     style="fill:#1f1a17"
     inkscape:connector-curvature="0"
     d="m 60.9707,100.46 c -0.376499,-3.07112 1.03022,-6.06309 3.6457,-7.72737 l -4.10146,-10.1446 c -6.20171,1.92195 -12.9582,0.554798 -17.9116,-3.6457 l -15.851,15.8509 c 10.4815,5.56777 22.5084,7.56886 34.2184,5.66681 z"
     class="fil0"
     id="_124851056" /><path
     style="fill:#1f1a17"
     inkscape:connector-curvature="0"
     d="m 63.2818,81.4455 4.12124,10.2239 c 3.19006,-0.534897 6.36022,0.911512 8.06418,3.64582 1.76344,-0.832255 3.50697,-1.70408 5.23084,-2.61548 l -13.6913,-13.7111 c -1.14917,0.970868 -2.39749,1.80301 -3.72496,2.45685 z"
     class="fil0"
     id="_124850984" /><path
     style="fill:#1f1a17"
     inkscape:connector-curvature="0"
     d="m 112.551,70.205 c -1.14917,-1.12938 -1.94174,-2.57579 -2.25876,-4.18071 h -36.6357 c -0.317028,3.94294 -1.88226,7.68768 -4.41848,10.6994 l 14.365,14.3649 c 10.4418,-5.78564 20.1506,-12.7997 28.9478,-20.8837 z"
     class="fil0"
     id="_124850912" /><path
     style="fill:#1f1a17"
     inkscape:connector-curvature="0"
     d="m 91.8559,14.9474 c 1.72387,1.72375 3.32879,3.54666 4.83455,5.46849 l -29.7205,29.7206 c -1.08981,-0.911396 -2.25876,-1.68406 -3.50709,-2.33802 l 14.7414,-35.2486 c 2.7343,0.554798 5.56765,-0.396284 7.44991,-2.47675 2.17951,1.46619 4.25997,3.1108 6.20171,4.87424 z"
     class="fil0"
     id="_124850840" /><g
     id="g3824">
    <ellipse
   style="fill:#da251d"
   ry="4.7948799"
   rx="4.7751002"
   cy="99.552002"
   cx="68.687202"
   class="fil1"
   id="_124850768" />
    <circle
   style="fill:#da251d"
   r="4.7948699"
   cy="63.834202"
   cx="119.027"
   class="fil1"
   id="_124850696" />
    <circle
   style="fill:#da251d"
   r="4.7948699"
   cy="4.7948298"
   cx="79.737396"
   class="fil1"
   id="_124850624" />
   </g><path
     style="fill:#1f1a17"
     inkscape:connector-curvature="0"
     d="m 107.824,41.1055 c -1.78322,-4.2204 -3.74486,-8.36143 -5.88468,-12.4233 -1.08981,-1.92195 -2.23898,-3.80421 -3.44762,-5.64691 l -29.3044,29.3046 c 0.931181,1.12938 1.74354,2.33802 2.39738,3.62592 l 36.2394,-14.8603 z"
     class="fil0"
     id="_124850024" /><path
     style="fill:#1f1a17"
     inkscape:connector-curvature="0"
     d="m 109.085,44.0469 c 1.76332,4.57688 3.36824,9.23314 4.7553,13.9489 -1.78334,1.12938 -3.05133,2.95217 -3.50709,5.03264 h -36.6554 c -0.118827,-1.40672 -0.376383,-2.79366 -0.812354,-4.14103 l 36.219604,-14.8405 z"
     class="fil0"
     id="_124849952" /></g>
</svg>